<?xml version="1.0" encoding="UTF-8" standalone="no"?>
<!-- Created with Inkscape (http://www.inkscape.org/) -->

<svg
   xmlns:dc="http://purl.org/dc/elements/1.1/"
   xmlns:cc="http://creativecommons.org/ns#"
   xmlns:rdf="http://www.w3.org/1999/02/22-rdf-syntax-ns#"
   xmlns:svg="http://www.w3.org/2000/svg"
   xmlns="http://www.w3.org/2000/svg"
   xmlns:sodipodi="http://sodipodi.sourceforge.net/DTD/sodipodi-0.dtd"
   xmlns:inkscape="http://www.inkscape.org/namespaces/inkscape"
   version="1.1"
   id="svg2"
   width="273"
   height="184"
   viewBox="0 0 273 184"
   sodipodi:docname="wolfpack.svg"
   inkscape:version="0.92.3 (2405546, 2018-03-11)">
  <metadata
     id="metadata8">
    <rdf:RDF>
      <cc:Work
         rdf:about="">
        <dc:format>image/svg+xml</dc:format>
        <dc:type
           rdf:resource="http://purl.org/dc/dcmitype/StillImage" />
        <dc:title></dc:title>
      </cc:Work>
    </rdf:RDF>
  </metadata>
  <defs
     id="defs6" />
  <sodipodi:namedview
     pagecolor="#ffffff"
     bordercolor="#666666"
     borderopacity="1"
     objecttolerance="10"
     gridtolerance="10"
     guidetolerance="10"
     inkscape:pageopacity="0"
     inkscape:pageshadow="2"
     inkscape:window-width="1238"
     inkscape:window-height="480"
     id="namedview4"
     showgrid="false"
     inkscape:zoom="1.2826087"
     inkscape:cx="136.5"
     inkscape:cy="92"
     inkscape:window-x="0"
     inkscape:window-y="0"
     inkscape:window-maximized="0"
     inkscape:current-layer="svg2" />
  <path
     style="fill:#000000"
     d="m 147.96454,171.60407 c 8.81915,-9.60742 16.56058,-21.42793 21.07648,-32.18201 2.06063,-4.90713 4.29005,-9.37206 4.95429,-9.92206 0.66423,-0.55 1.91884,-3.49678 2.78803,-6.54839 1.51854,-5.33142 1.18973,-11.14957 -1.02864,-18.20161 -0.4026,-1.27987 0.005,-1.75 1.51689,-1.75 2.63956,0 2.63329,-0.0382 -0.92874,-5.654944 l -2.99612,-4.724401 2.17044,-2.310327 L 177.68761,88 h -3.31505 -3.31504 l 4.307,-3.408255 c 2.36885,-1.87454 5.69468,-3.7334 7.39073,-4.1308 2.15769,-0.505568 2.55821,-0.855435 1.33373,-1.16507 C 181.43903,78.625781 181.99504,77 184.87416,77 c 2.19659,0 2.39693,-0.25834 1.5,-1.934259 -0.56935,-1.063842 -1.03518,-2.61588 -1.03518,-3.448973 0,-1.339817 0.433,-1.331286 3.75,0.07389 2.0625,0.873732 6.225,1.868249 9.25,2.210037 4.72627,0.534011 5.46756,0.901232 5.26942,2.61037 -0.29105,2.510618 2.60693,9.586896 4.60273,11.238936 0.83056,0.6875 2.2116,1.234054 3.06898,1.214565 1.08953,-0.02477 0.90125,-0.40111 -0.62539,-1.25 C 209.45338,87.046554 208.40881,86.05 208.33346,85.5 c -0.0754,-0.55 -0.74237,-1.675 -1.48226,-2.5 -0.73989,-0.825 -1.38585,-2.625 -1.43546,-4 -0.0496,-1.375 -0.35582,-5.121841 -0.68046,-8.326314 -0.32463,-3.204473 -0.29444,-7.403134 0.0671,-9.330356 l 0.65737,-3.504042 4.82385,4.330356 C 215.9335,67.241531 221.81103,71 224.0926,71 c 2.69664,0 10.21333,4.069728 11.3135,6.125419 0.56828,1.061829 1.39764,1.705375 1.84304,1.430103 0.4454,-0.275272 3.54083,1.970929 6.87874,4.991558 6.27041,5.674402 7.52712,8.102894 8.71096,16.83324 0.84603,6.23917 2.22024,9.20626 5.15427,11.12871 1.29023,0.84539 2.34587,2.2017 2.34587,3.01402 0,0.81232 0.64468,1.47695 1.43261,1.47695 1.33477,0 3.21132,3.56242 2.76552,5.25 -0.10897,0.4125 0.47122,0.75 1.28933,0.75 1.66329,0 6.51254,7.09447 6.51254,9.52788 0,2.73979 -4.96412,6.51923 -7.67052,5.83997 -1.68861,-0.42382 -2.32185,-0.21329 -2.11892,0.70445 0.5936,2.68444 -3.68566,1.99703 -12.20292,-1.96026 C 238.97288,130.82758 231.72699,129 222.14912,129 c -9.91485,0 -15.06409,1.98743 -18.91206,7.2994 -3.2701,4.51423 -3.74826,9.10368 -1.23754,11.87799 2.16827,2.39592 1.30185,3.13901 -2.136,1.83194 -2.28204,-0.86763 -2.65651,-0.79562 -2.18961,0.4211 0.36139,0.94176 0.0882,1.28542 -0.76248,0.959 -0.79932,-0.30673 -1.56424,0.44171 -1.92648,1.88499 -0.33043,1.31654 -1.96095,4.10525 -3.62337,6.19715 -2.56123,3.22287 -3.0226,3.47817 -3.0226,1.67254 0,-1.97606 -0.33255,-1.87706 -4.5766,1.3625 -2.51712,1.92136 -5.10462,3.5453 -5.75,3.60874 -2.66769,0.26224 -3.36514,0.51559 -7.60648,2.76305 -6.09046,3.22728 -15.7253,6.77164 -22.93623,8.43753 l -6.02633,1.39222 z m 113.89407,-37.57231 c -0.38836,-0.62837 -1.45165,-0.9887 -2.36287,-0.80073 -0.91122,0.18797 -2.19688,-0.34961 -2.85702,-1.19463 -1.00944,-1.29213 -1.10897,-1.17421 -0.62604,0.74164 0.42286,1.67753 1.06877,2.12108 2.45026,1.68262 1.35167,-0.42901 1.87604,-0.10143 1.87604,1.17195 0,1.29776 0.29571,1.47168 1.11287,0.65452 0.61207,-0.61207 0.79512,-1.62699 0.40676,-2.25537 z m -7.51963,-4.14141 c 1.26612,-0.91077 1.22714,-0.99124 -0.25,-0.51607 -1.16746,0.37556 -1.75,0.0352 -1.75,-1.0223 0,-1.05326 -0.62432,-1.42198 -1.86038,-1.09874 -1.1662,0.30497 -2.49394,-0.35717 -3.55831,-1.7745 -1.05962,-1.411 -2.39361,-2.07908 -3.54843,-1.77709 -1.21857,0.31867 -2.01277,-0.14538 -2.32569,-1.35887 -0.33209,-1.28783 -0.51012,-1.04282 -0.59119,0.8136 -0.0948,2.17162 0.24244,2.56265 1.84817,2.14274 1.95054,-0.51008 5.46667,1.93671 4.36552,3.03786 -0.3163,0.31629 0.60513,0.36106 2.04762,0.0995 1.88827,-0.34241 2.62269,-0.0501 2.62269,1.04397 0,1.78174 0.91849,1.90724 3,0.40991 z m -40.11576,-11.73114 c -1.67236,-0.25807 -1.87502,-0.54687 -0.83486,-1.18973 1.07513,-0.66447 0.78305,-1.31345 -1.34421,-2.98676 -3.76652,-2.96274 -5.30669,-5.99293 -3.58644,-7.0561 1.03695,-0.64087 0.94126,-0.96637 -0.43988,-1.49636 -0.97081,-0.37254 -2.00388,-0.43856 -2.29571,-0.14673 -0.8278,0.8278 2.69501,7.06145 4.85004,8.5822 1.39052,0.98125 1.63012,1.67097 0.85109,2.45 -1.74292,1.74292 -1.3057,3.70225 0.66573,2.98332 1.66667,-0.60779 1.66667,-0.54302 0,1.36013 -2.75502,3.14592 -2.04673,3.41943 1.29635,0.50059 2.934,-2.56168 2.9649,-2.67234 0.83789,-3.00056 z M 206.68898,101 c -0.58796,-2.939825 -0.51844,-3 3.46598,-3 2.23629,0 4.39136,-0.526472 4.78905,-1.169939 0.49297,-0.797649 0.16751,-0.956755 -1.02277,-0.5 C 212.96103,96.698528 210.63721,97 208.75719,97 c -3.52348,0 -4.30924,1.514432 -2.81122,5.41821 0.98766,2.57382 1.38843,1.80887 0.74301,-1.41821 z m 37.51493,-1.75 c -1.85228,-2.0625 -4.41638,-5.1 -5.698,-6.75 -1.5715,-2.023204 -2.11878,-2.348803 -1.68084,-1 0.35716,1.1 1.15799,3.896663 1.77963,6.214806 1.12461,4.193724 2.08772,4.947964 6.60064,5.169194 2.29313,0.11241 2.26213,-6e-5 -1.00143,-3.634 z m 6.13507,-2.115141 C 250.33898,95.075572 246.73047,90 245.2664,90 c -1.47761,0 -1.07413,4.345525 0.62928,6.777494 1.89502,2.705509 4.4433,2.910462 4.4433,0.357365 z M 126.57531,175.98663 c -3.99502,-1.04678 -11.19502,-3.76108 -16,-6.03177 -4.80498,-2.27069 -9.76819,-4.25469 -11.029346,-4.4089 -1.26116,-0.15421 -4.07366,-1.71134 -6.25,-3.46029 -3.76473,-3.02542 -3.95698,-3.07377 -3.95698,-0.99529 0,1.88218 -0.43179,1.64643 -3.11889,-1.70288 -1.7154,-2.13812 -3.58347,-5.19401 -4.15129,-6.79085 -0.98852,-2.77997 -1.09409,-2.82247 -2.48453,-1 -1.38881,1.82034 -1.42306,1.80576 -0.78523,-0.33435 0.6167,-2.06923 0.42547,-2.1894 -2.54016,-1.59628 l -3.20707,0.64141 2.27218,-3.07328 c 2.59471,-3.50953 2.3257,-6.00875 -1.20622,-11.20657 -7.122,-10.48119 -27.43251,-10.44219 -48.40371,0.093 -6.56149,3.29624 -8.52381,3.88778 -10.01751,3.01976 -1.80954,-1.05157 -1.80955,-1.08027 -5.8e-4,-1.10989 1.28254,-0.021 1.66794,-0.52305 1.24587,-1.62295 -0.40767,-1.06239 0.0561,-1.76701 1.39301,-2.11663 1.10227,-0.28825 1.99724,-1.25911 1.98882,-2.15746 -0.0131,-1.39546 -0.15082,-1.4191 -0.94563,-0.16233 -0.51167,0.80907 -1.22773,1.17362 -1.59124,0.81011 -0.36351,-0.36351 -1.24285,-0.12548 -1.95409,0.52896 -0.98354,0.905 -1.01789,1.53069 -0.14344,2.6133 0.94545,1.17053 0.74996,1.32041 -1.10029,0.84362 -1.2375,-0.31888 -2.25,-0.16036 -2.25,0.35227 0,1.68628 -6.0630999,-2.16368 -7.1441999,-4.53645 -0.87512,-1.92067 -0.58603,-3.03338 1.67624,-6.4519 1.50355,-2.27206 3.1179,-4.13099 3.5874299,-4.13099 0.46953,0 1.51177,-1.575 2.31608,-3.5 0.80432,-1.925 2.16036,-3.5 3.01342,-3.5 0.85307,0 1.55103,-0.56396 1.55103,-1.25325 0,-0.68928 1.33392,-2.51225 2.96426,-4.05103 1.80637,-1.70493 3.20085,-4.24266 3.56993,-6.49675 2.24787,-13.728162 2.28758,-13.818532 8.66812,-19.725784 3.78588,-3.505064 6.3405,-5.212944 6.76647,-4.523708 0.41908,0.678098 1.12365,0.143067 1.81778,-1.380372 1.36323,-2.991973 7.4209,-6.258831 13.36941,-7.210037 2.38672,-0.381652 3.7559,-0.888445 3.04262,-1.126206 -0.72188,-0.240627 0.38755,-1.318402 2.50227,-2.430871 2.08953,-1.099219 5.46944,-3.603879 7.51092,-5.565912 l 3.71178,-3.567333 1.03822,2.730726 c 1.50331,3.954018 1.26278,11.646325 -0.46794,14.964834 -1.75516,3.365368 -1.8511,3.974524 -0.49384,3.135693 1.63817,-1.012447 1.13696,1.056167 -0.87593,3.615141 -1.03176,1.311673 -1.96134,2.834859 -2.06574,3.384859 -0.1044,0.55 -1.17273,1.546554 -2.37407,2.214565 -2.75732,1.533216 -1.58508,1.652998 1.66864,0.170505 2.69765,-1.229133 5.8971,-7.350649 5.8971,-11.282945 0,-2.237648 0.51342,-2.585577 4.625,-3.134203 2.54375,-0.339424 6.61766,-1.258561 9.05314,-2.042528 C 89.702604,70.641427 91.828964,70 91.992374,70 c 0.16341,0 -0.14175,1.154295 -0.67814,2.5651 -0.53639,1.410804 -0.97525,2.704554 -0.97525,2.875 0,0.170445 1.4625,0.626145 3.25,1.012667 l 3.25,0.702766 -2.5,0.998984 c -2.49386,0.99653 -2.49093,1.002141 1.19184,2.284401 2.03051,0.706979 5.102536,2.472441 6.826716,3.923249 L 105.49243,87 h -2.57672 c -2.89806,0 -3.309656,1.14683 -1.07673,3 2.08561,1.730906 1.92336,2.524316 -1.54804,7.569825 -2.817476,4.095065 -2.732936,5.071375 0.39118,4.517545 0.46373,-0.0822 0.46373,1.77701 0,4.13158 -2.012876,10.22039 -1.000666,16.61923 4.0782,25.78105 0.76223,1.375 3.41883,6.775 5.90355,12 4.69056,9.86354 10.62661,18.41056 19.62014,28.25 2.89061,3.1625 4.873,5.72522 4.40531,5.69494 -0.46769,-0.0303 -4.11899,-0.91152 -8.11401,-1.95831 z M 22.628734,130 c 0.28766,-1.1 0.11514,-2 -0.38337,-2 -0.49851,0 -0.90638,0.9 -0.90638,2 0,1.1 0.17252,2 0.38337,2 0.21085,0 0.61872,-0.9 0.90638,-2 z m 3.12231,-0.36858 c -0.31159,-0.81199 0.3112,-1.58729 1.53138,-1.90638 1.18217,-0.30914 2.09013,-0.0461 2.13551,0.61858 0.0434,0.63601 0.34074,0.48942 0.66071,-0.32576 1.02718,-2.61691 2.94542,-3.91297 4.99725,-3.37641 1.54553,0.40417 2.11046,-0.0627 2.49216,-2.05941 0.34438,-1.80154 0.0617,-2.58204 -0.93513,-2.58204 -0.99604,0 -1.22699,0.63558 -0.76261,2.09872 0.57332,1.80636 0.36161,2.00208 -1.51974,1.40496 -1.56562,-0.49691 -2.75759,-0.0801 -4.20084,1.46908 -1.10825,1.18956 -2.63717,1.92409 -3.39762,1.63228 -1.45799,-0.55949 -3.79303,2.68173 -2.71128,3.76348 1.13864,1.13864 2.24673,0.66105 1.71021,-0.7371 z M 67.338984,123 c 0,-0.55 -0.94442,-1.94442 -2.09872,-3.09872 l -2.09872,-2.09872 2.09243,0.66411 c 1.64237,0.52127 1.96076,0.32101 1.48029,-0.93108 -0.42051,-1.09585 -1.27937,-1.39046 -2.7437,-0.94116 -3.16967,0.97254 -3.17067,1.12198 -0.0287,4.25738 3.45453,3.44725 3.39708,3.41093 3.39708,2.14819 z m 0.3003,-10.91064 c 2.98203,-3.30075 3.53303,-4.63938 3.53303,-8.58333 0,-4.935471 -0.67482,-5.691961 -1.04861,-1.17552 -0.12151,1.46822 -0.68529,2.67638 -1.25283,2.6848 -0.56754,0.008 -0.42293,0.4012 0.32136,0.87283 1.82277,1.15504 0.19814,4.13836 -4.09705,7.52344 -1.79091,1.41143 -2.74606,2.57123 -2.12256,2.57733 0.6235,0.006 2.7235,-1.7487 4.66666,-3.89955 z M 34.716884,102 c 1.85344,0 2.56683,-1.10009 4.37726,-6.75 2.09699,-6.544231 2.10198,-6.673789 0.16367,-4.25 -1.0996,1.375 -3.88041,4.723727 -6.17958,7.441616 -2.50298,2.958804 -3.45714,4.664104 -2.378,4.250004 C 31.691514,102.31123 33.499004,102 34.716884,102 Z m -2.76856,-7.211438 c 0.84445,-1.632992 1.26843,-3.664714 0.94217,-4.514938 -0.52367,-1.364654 -0.81771,-1.342693 -2.50838,0.187342 -2.02558,1.833127 -4.23543,7.013399 -3.36371,7.885121 1.04957,1.049564 3.43924,-0.674873 4.92992,-3.557525 z M 70.338984,97 c 1.07104,-0.692157 0.0701,-0.945247 -3.5,-0.885007 -3.98915,0.06731 -4.49458,0.246232 -2.5,0.885007 3.46883,1.110912 4.28099,1.110912 6,0 z m 61.482606,72.7722 c -3.84043,-4.13292 -8.54986,-10.15991 -10.46538,-13.3933 -1.91552,-3.2334 -4.69638,-7.11937 -6.17968,-8.63551 -4.11514,-4.20621 -8.13474,-13.28202 -8.65361,-19.53882 -0.39992,-4.8225 -0.62827,-5.3174 -1.74736,-3.78695 -1.13602,1.5536 -1.37006,1.20878 -1.99129,-2.93388 -0.70291,-4.68736 -0.12983,-13.97897 1.1246,-18.23374 0.50171,-1.70167 0.25528,-2.25 -1.01117,-2.25 -1.35895,0 -0.99302,-1.177909 1.94163,-6.25 4.99601,-8.634853 7.43934,-14.317818 8.88629,-20.668646 l 1.23456,-5.418645 2.32907,4.918645 c 1.28098,2.705255 4.3162,10.30265 6.74493,16.8831 2.42873,6.580449 4.89598,12.542946 5.48278,13.249996 0.70966,0.85509 3.79761,1.28555 9.22196,1.28555 9.05926,0 11.94079,-1.23712 13.03485,-5.596218 0.36483,-1.453582 2.97037,-8.704343 5.79009,-16.112801 l 5.12677,-13.469924 3.63227,11.000282 c 1.99774,6.050156 4.85001,12.840418 6.33836,15.089472 2.06941,3.127091 2.34984,4.089189 1.19191,4.089189 -1.84817,0 -1.84761,-0.19647 -0.0142,5 1.52993,4.3363 1.95995,12.68138 0.8642,16.77108 -0.45051,1.68145 -0.93366,2.0012 -1.86099,1.23159 -0.97027,-0.80526 -1.35482,0.19437 -1.70659,4.43627 -0.47364,5.71143 -5.73518,17.65002 -8.76396,19.88568 -0.8758,0.64646 -3.68649,4.55038 -6.24597,8.67538 -2.55949,4.125 -7.50388,10.60199 -10.98754,14.39331 l -6.33392,6.8933 -6.98262,-7.51441 z m -0.13523,-66.76734 c -2.05009,-0.827 -3.98475,-4.908733 -7.34902,-15.50486 -1.868,-5.883448 -9.26382,-21.407566 -12.334,-25.889547 -2.81587,-4.110721 -3.44244,-6.209366 -1.49442,-5.005425 0.82696,0.511093 0.93527,0.161951 0.36946,-1.190983 -0.44027,-1.052725 -1.02779,-4.340837 -1.30562,-7.306916 -0.38752,-4.137229 -0.21577,-5.214031 0.73768,-4.62477 0.92335,0.570666 1.05117,0.164301 0.49726,-1.580928 -2.16764,-6.829618 -0.32838,-15.730103 6.48159,-31.365407 l 2.16206,-4.9639765 5.54831,9.9639765 C 131.87882,27.889998 134.66465,31 138.85176,31 c 4.09925,0 5.9566,-2.11862 13.05234,-14.888373 l 5.77248,-10.3883735 3.8608,7.6731505 c 6.32897,12.578521 7.87896,21.793958 5.12682,30.481445 -0.44834,1.415264 -0.36561,1.430843 0.6487,0.122151 0.91187,-1.176516 1.0682,-0.313894 0.72488,4 -0.24074,3.025 -0.80571,6.4 -1.25549,7.5 -0.73333,1.793491 -0.64027,1.855559 0.90131,0.601119 1.57544,-1.281993 1.63613,-1.180679 0.72625,1.212488 -0.54607,1.436252 -2.09572,4.315749 -3.44368,6.398881 C 163.61821,65.795619 159.97621,74.025 156.87283,82 c -8.29592,21.31868 -7.92134,20.6275 -11.57507,21.35824 -4.36597,0.8732 -10.9976,0.70103 -13.6114,-0.35338 z M 133.32713,66.75 c -0.0112,-4.029915 -0.30684,-4.457139 -5.7084,-8.25 -7.81612,-5.488309 -8.44933,-5.540626 -3.64348,-0.301028 2.27495,2.480272 5.19995,6.371694 6.5,8.647605 1.30005,2.27591 2.47623,4.141485 2.61373,4.145721 0.1375,0.0042 0.24467,-1.904798 0.23815,-4.242298 z m 14.08513,0.5 c 1.23002,-2.0625 4.07393,-5.982885 6.31982,-8.711967 l 4.08342,-4.961967 -4.89225,3.365952 c -7.24563,4.985128 -8.58427,6.631549 -8.58427,10.557982 0,1.925 0.1883,3.5 0.41844,3.5 0.23014,0 1.42482,-1.6875 2.65484,-3.75 z M 132.89872,52.450831 C 132.0155,51.102874 130.82292,50 130.24854,50 c -1.37156,0 -0.155,3.950441 1.95872,6.360425 1.46766,1.673373 1.66518,1.693565 1.96451,0.200831 0.18304,-0.912776 -0.38983,-2.762468 -1.27305,-4.110425 z m 13.25998,4.266398 c 0.58553,-0.705524 1.52949,-2.505524 2.09769,-4 C 149.08589,50.535471 149.00382,50 147.83991,50 c -1.39678,0 -4.50093,4.793437 -4.50093,6.95034 0,1.444331 1.53272,1.317618 2.81972,-0.233111 z M 156.33898,26 c -0.52804,-13.200892 -2,-12.420824 -2,1.0599 0,5.650437 1.46419,13.253475 2.27798,11.828788 C 156.73907,38.67491 156.61396,32.875 156.33898,26 Z m -33.5,0.5 c 0,-4.4 -0.45,-8.749265 -1,-9.665033 -0.70655,-1.176434 -1.00875,1.679468 -1.02983,9.732263 -0.0216,8.261767 0.2535,10.92073 1,9.665033 C 122.37556,35.279518 122.83898,30.9 122.83898,26.5 Z"
     id="path12"
     inkscape:connector-curvature="0" />
</svg>
