<svg
   id="peasant"
   class="icone"
   xmlns:dc="http://purl.org/dc/elements/1.1/"
   xmlns:cc="http://creativecommons.org/ns#"
   xmlns:rdf="http://www.w3.org/1999/02/22-rdf-syntax-ns#"
   xmlns:svg="http://www.w3.org/2000/svg"
   xmlns="http://www.w3.org/2000/svg"
   xmlns:sodipodi="http://sodipodi.sourceforge.net/DTD/sodipodi-0.dtd"
   xmlns:inkscape="http://www.inkscape.org/namespaces/inkscape"
   version="1.1"
   viewBox="0 0 336 330"
   sodipodi:docname="peasant.svg"
   inkscape:version="0.92.3 (2405546, 2018-03-11)">
 <metadata
     id="metadata8">
   <rdf:RDF>
      <cc:Work
         rdf:about="">
        <dc:format>image/svg+xml</dc:format>
        <dc:type
           rdf:resource="http://purl.org/dc/dcmitype/StillImage" />
        <dc:title></dc:title>
      </cc:Work>
   </rdf:RDF>
 </metadata>
 <defs
     id="defs6" />
 <path
     style="fill:#ffffff"
     d="m 64.071085,318.24845 c -1.885903,-0.96165 -4.360903,-3.01822 -5.5,-4.57016 -2.005778,-2.73274 -2.086851,-4.27785 -2.571085,-49 -0.275,-25.39806 -0.329431,-46.76665 -0.120958,-47.48576 0.222711,-0.76822 1.047589,-1.03619 2,-0.64973 0.891527,0.36176 6.120958,1.34187 11.620958,2.17803 5.5,0.83616 10.5625,1.67691 11.25,1.86835 0.976127,0.27179 1.25,10.12577 1.25,44.97514 0,50.26304 0.225373,48.69589 -7.54388,52.45692 -5.000464,2.42069 -6.038805,2.4434 -10.385035,0.22721 z m 28.26301,-0.31213 c -7.502709,-3.71382 -7.389761,-2.86829 -7.094552,-53.10949 L 85.5,220.5 88,220.2476 c 5.571849,-0.56254 17.63136,-2.60284 19.58347,-3.31326 3.86862,-1.40786 4.54796,0.0928 3.45747,7.63774 -0.55073,3.81035 -1.01024,24.97973 -1.02113,47.04306 -0.0196,39.62177 -0.0465,40.14904 -2.18771,42.87118 -2.0706,2.63234 -7.32489,5.51457 -10.049981,5.51289 -0.705166,-4.3e-4 -3.156776,-0.92874 -5.448024,-2.06289 z m 124.561495,0.7704 c -7.36445,-3.41223 -9.21139,-7.68684 -7.94738,-18.39369 0.5073,-4.29717 1.41254,-12.53803 2.01163,-18.31303 0.59909,-5.775 1.52821,-14.6625 2.06471,-19.75 0.5365,-5.0875 1.43289,-13.6375 1.99199,-19 2.95835,-28.37447 3.16105,-29.45831 5.40629,-28.90748 16.3647,4.01483 20.2557,5.08863 21.25425,5.86553 0.64739,0.50369 1.00146,2.35044 0.78682,4.10388 -0.21464,1.75344 -0.87863,8.36307 -1.47553,14.68807 -0.59691,6.325 -1.49758,15.1 -2.0015,19.5 -0.50391,4.4 -1.39644,12.725 -1.9834,18.5 -0.58695,5.775 -1.53162,15 -2.09925,20.5 -0.56763,5.5 -1.52856,11.69732 -2.1354,13.77181 -1.78942,6.11721 -10.20737,10.06012 -15.87323,7.43491 z m 64.44751,-0.25317 c -6.55548,-2.87252 -7.03768,-4.556 -10.3696,-36.20355 -0.56458,-5.3625 -1.4488,-13.575 -1.96494,-18.25 -2.5053,-22.69213 -3.17142,-30.08564 -3.33314,-36.99532 l -0.17542,-7.49532 5.75329,-1.14065 c 3.16431,-0.62736 8.05668,-1.89405 10.87194,-2.81488 2.81525,-0.92082 5.66892,-1.46306 6.34148,-1.20498 0.73656,0.28265 1.48022,3.58728 1.87009,8.3102 0.35599,4.31252 1.08904,11.89095 1.62898,16.84095 5.45259,49.98712 7.02196,67.31428 6.38433,70.48813 -0.68914,3.4302 -2.26465,5.38025 -6.36779,7.88155 -3.97464,2.42297 -6.16749,2.54331 -10.63922,0.58387 z M 148.20733,288.57903 148.5,259.15805 l 2.42431,-2.57902 C 152.79124,254.59296 154.32436,254 157.59253,254 162.66466,254 165,253.22696 165,251.548 c 0,-0.68091 0.9,-2.05251 2,-3.048 1.93495,-1.75111 1.99928,-3.06519 1.97776,-40.40499 C 168.95658,171.32993 168.86281,169.38147 167,167 c -2.53388,-3.23938 -2.52661,-8.06081 0.017,-11.29452 1.9214,-2.44267 2.00436,-3.78827 1.75,-28.38485 L 168.5,101.5 l -6,-0.5 -6,-0.5 -0.3075,-4.25 L 155.885,92 h 17.615 17.615 l -0.3075,4.25 -0.3075,4.25 -6,0.5 -6,0.5 v 26 26 l 9.51325,0.28336 c 6.57136,0.19573 10.04694,-0.11352 11.23905,-1 0.94919,-0.70585 2.22611,-3.75836 2.8376,-6.78336 0.6115,-3.025 1.54411,-7.3 2.07248,-9.5 0.52837,-2.2 1.20694,-5.22302 1.50793,-6.71783 0.84748,-4.20891 2.65464,-5.18261 6.2082,-3.345 4.33717,2.24284 11.71778,2.02555 14.84862,-0.43717 C 230.90711,122.71203 232,123.3616 232,129.13398 232,134.38633 230.22555,142 229.00143,142 c -0.3751,0 -1.28077,-2.49597 -2.01261,-5.5466 -1.2396,-5.16724 -2.47621,-7.29934 -3.58848,-6.18707 -0.43142,0.43141 -2.24722,7.57978 -4.37763,17.23367 -3.24511,14.70509 -4.749,17.15671 -12.60947,20.55569 -3.7002,1.60002 -7.81422,2.26208 -16.66324,2.68157 L 178,171.29428 v 37.73042 c 0,33.40718 0.18381,37.88296 1.60418,39.06176 0.88229,0.73224 1.99615,2.36234 2.47524,3.62244 0.75817,1.99412 1.56461,2.2911 6.22152,2.2911 4.45785,0 5.75487,0.43032 7.77475,2.57946 l 2.42431,2.57947 v 29.15604 c 0,26.9723 -0.13107,29.18135 -1.75,29.49386 -1.63286,0.31521 -1.75,-1.52639 -1.75,-27.513 0,-32.18335 -0.10141,-32.62659 -7.34377,-32.09875 L 183.5,258.5 l -0.26499,29.82044 c -0.24599,27.68269 -0.38937,29.79651 -2,29.48665 -1.59313,-0.30649 -1.75667,-2.76553 -1.99989,-30.07044 L 178.97024,258 H 173.48512 168 v 30 c 0,29.25837 -0.0491,30 -1.98512,30 -1.92974,0 -1.99251,-0.82996 -2.25,-29.75 L 163.5,258.5 l -3.84809,-0.31621 c -2.59017,-0.21285 -4.46982,0.24644 -5.75,1.40498 C 152.11791,261.20327 152,263.06728 152,289.65499 152,317.53069 151.9662,318 149.95733,318 c -2.01723,0 -2.03902,-0.3663 -1.75,-29.42097 z M 28.454545,202.54545 c -2.12965,-2.12965 -2.451963,-3.35402 -2.435038,-9.25 0.05401,-18.81513 8.348931,-66.91826 11.73398,-68.04661 0.611012,-0.20367 2.46909,0.33202 4.129062,1.19042 C 46.026363,128.58211 52.234938,128.39554 56.5,126 61.460158,123.21405 62,123.42898 62,128.1898 62,133.06108 59.896956,144 58.960439,144 57.955077,144 56,139.14214 56,136.64408 c 0,-2.56825 -2.435281,-6.41624 -3.193188,-5.04557 -0.681409,1.23233 -2.616635,9.17717 -5.334826,21.90149 -1.39362,6.52378 -3.316022,21.48563 -3.918849,30.5 -0.918826,13.73963 -1.457878,16.52063 -3.660547,18.88492 -2.790392,2.99513 -8.265954,2.83263 -11.438045,-0.33947 z m 98.468535,-0.46853 C 124.20948,199.36332 124,198.61378 124,191.61777 124,175.16992 115.95569,130 113.0265,130 112.31398,130 110,139.77072 110,142.77928 c 0,5.9371 -3.17847,-0.1769 -4.56407,-8.77928 -0.54723,-3.39745 -0.89258,-27.70268 -0.48823,-34.361291 0.16388,-2.698689 16.00854,3.838681 18.49265,7.629901 1.39675,2.13172 4.68536,11.25126 6.57444,18.23139 0.44655,1.65 1.48763,5.475 2.31351,8.5 4.03315,14.77241 7.25249,35.72736 8.24566,53.67164 0.67238,12.14842 0.66874,12.17656 -1.90469,14.75 -3.5676,3.5676 -7.96287,3.43861 -11.74619,-0.34472 z m 171.73322,1.79055 C 295.79597,202.20479 294,196.6913 294,189.57297 294,178.5281 291.03474,158.42688 286.91612,141.55205 285.31225,134.98067 284,129.46817 284,129.30205 284,129.13592 283.62187,129 283.15971,129 c -0.46215,0 -1.4346,2.5875 -2.16099,5.75 -1.70102,7.40573 -2.39992,8.09635 -4.10435,4.05563 -1.01827,-2.414 -1.39437,-8.15658 -1.39437,-21.29005 0,-16.45412 0.1516,-18.013776 1.78169,-18.329427 2.67844,-0.518655 14.32766,5.288007 16.13139,8.040847 3.55458,5.42498 10.83026,30.68234 13.47351,46.773 0.58727,3.575 1.5196,9.2 2.07185,12.5 0.55224,3.3 1.30368,12.14179 1.66985,19.64843 l 0.66577,13.64842 -2.60158,2.60158 c -2.75723,2.75723 -6.80164,3.34923 -10.03618,1.46904 z M 65.659132,140.5541 C 64.626897,137.86413 66.065402,136 69.173411,136 c 2.638515,0 2.925121,0.29821 2.643011,2.75 -0.244219,2.12249 -0.914778,2.81939 -2.938675,3.0541 -1.661087,0.19263 -2.840845,-0.26555 -3.218615,-1.25 z m 30.007535,0.77923 c -1.309676,-1.30967 -0.63465,-4.2801 1.195193,-5.2594 2.699612,-1.44479 5.60543,0.8784 4.6933,3.75227 -0.66776,2.10393 -4.349396,3.04623 -5.888493,1.50713 z M 236,139.10699 c 0,-1.64908 0.64497,-3.14051 1.5,-3.46862 2.61487,-1.00342 4.5,0.44965 4.5,3.46862 0,2.54779 -0.35799,2.89301 -3,2.89301 -2.64201,0 -3,-0.34522 -3,-2.89301 z m 29.71258,2.27225 c -1.34997,-1.34997 -0.70852,-4.31105 1.14928,-5.30531 2.43417,-1.30273 5.49237,0.83822 4.98833,3.49217 -0.37081,1.95242 -4.715,3.23576 -6.13761,1.81314 z M 67.666667,131.33333 c -1.233726,-1.23372 -0.680122,-13.97111 0.822509,-18.9244 0.819046,-2.69991 1.494046,-6.99133 1.5,-9.53649 0.0064,-2.71616 0.584284,-5.10348 1.399197,-5.779798 0.935077,-0.776045 5.750869,-1.060893 14.75,-0.872445 L 99.5,96.5 99.773074,114.25 100.04615,132 H 84.189741 c -8.721024,0 -16.156408,-0.3 -16.523074,-0.66667 z m 169.949843,-0.89032 c -0.96187,-2.50658 -0.68046,-11.52413 0.49753,-15.94301 0.58648,-2.2 1.42131,-6.84807 1.85519,-10.32905 0.43388,-3.48098 1.27803,-6.81821 1.87588,-7.416063 1.3291,-1.329101 25.9693,-1.340475 27.29718,-0.0126 0.49921,0.499212 0.78392,8.523923 0.63268,17.832683 L 269.5,131.5 l -15.63349,0.2748 c -13.59784,0.23902 -15.71377,0.0656 -16.25,-1.33179 z M 42.2,124.8 c -1.870383,-1.87038 -1.4639,-2.5578 2.234161,-3.77827 5.70713,-1.88352 7.089262,-5.53695 8.344574,-22.057423 C 53.829715,85.132932 55.384452,78 57.348242,78 c 0.500372,0 3.34918,2.538835 6.330686,5.641856 l 5.420919,5.641856 -0.629183,9.608144 C 68.124613,104.17634 67.16849,110.3 66.345946,112.5 64.505234,117.42322 59.618348,122.68479 55.127876,124.57817 51.014453,126.31256 43.835746,126.43575 42.2,124.8 Z m 170.2427,-0.21824 c -2.20491,-1.61227 -2.25528,-1.54415 2.86258,-3.8716 5.23893,-2.3825 6.48954,-5.99669 7.57578,-21.89348 1.26803,-18.557259 4.26782,-24.91325 8.43149,-17.864727 0.95907,1.623575 3.14052,3.946535 4.84767,5.162135 l 3.10391,2.210181 -0.69099,10.920142 c -0.78665,12.431789 -1.53651,14.745389 -6.50846,20.081009 -5.77848,6.20115 -14.96457,8.66192 -19.62198,5.25634 z M 40.274885,116.69351 c 0.883845,-5.4465 3.395527,-10.43145 6.172798,-12.25119 3.340488,-2.18877 3.979042,-1.46623 3.687178,4.17212 -0.361699,6.98745 -3.400774,11.29211 -8.015703,11.35376 -2.140112,0.0286 -2.326589,-0.30253 -1.844273,-3.27469 z M 210,117.48643 c 0,-1.38246 0.3975,-3.29496 0.88333,-4.25 0.48583,-0.95504 1.49439,-3.03468 2.24123,-4.62144 1.65354,-3.5131 5.57461,-6.31582 6.93407,-4.95636 1.6377,1.6377 -0.16879,10.31884 -2.79733,13.44268 -3.18321,3.78304 -7.2613,3.99932 -7.2613,0.38512 z M 72.415222,87.612784 C 64.121347,83.750821 59.442208,77.79885 57.21441,68.277003 55.383558,60.451744 59.615388,55.889155 71.264351,53.128919 c 12.438389,-2.947291 32.021829,0.07358 37.112099,5.724779 2.32098,2.576747 1.92102,10.676764 -0.8093,16.390041 -2.05407,4.298215 -7.55576,9.962855 -11.421535,11.759818 -1.455088,0.676382 -3.427009,1.627284 -4.382046,2.113114 -3.524386,1.792868 -14.020336,0.97705 -19.348347,-1.503887 z m 170.077498,0.08885 c -10.08877,-4.804785 -16.98097,-16.64921 -14.98255,-25.747926 2.4621,-11.209876 38.26559,-13.72151 50.22594,-3.523377 4.71925,4.023931 1.9093,16.857591 -5.26095,24.027838 -4.7746,4.774605 -10.04724,6.91393 -17.97516,7.293257 -5.76234,0.27571 -7.88533,-0.08671 -12.00728,-2.049792 z M 46.5,68.476671 C 43.2,67.845426 37.8,66.53956 34.5,65.574748 11.886202,58.96321 13.867433,48.255208 38.870464,41.953605 c 4.196245,-1.057594 8.394887,-1.929808 9.330315,-1.938252 0.935428,-0.0084 3.932258,-0.49392 6.659622,-1.078834 4.814282,-1.032479 5.025773,-1.229256 7.25475,-6.75 3.180755,-7.878118 11.045728,-15.701246 16.980199,-16.889859 6.954341,-1.392883 12.408178,0.339913 17.794313,5.653616 4.055977,4.001437 7.812667,10.047335 9.453127,15.213587 0.52299,1.647036 2.06502,2.078711 17.65721,4.942946 8.50991,1.563243 16.70625,4.553567 20.75,7.570352 4.44064,3.31288 4.57524,8.242999 0.30801,11.281535 -3.4471,2.454546 -9.12901,4.962892 -14.05801,6.206072 -6.74188,1.700419 -17.96661,3.535289 -18.48089,3.021011 C 112.2336,68.900267 112,66.751282 112,64.410256 c 0,-3.355199 -0.60892,-4.865327 -2.87591,-7.13232 -2.71207,-2.71207 -4.81554,-3.596657 -14.74011,-6.198764 -5.285957,-1.385916 -16.482003,-1.385916 -21.76796,0 -14.55145,3.81522 -16.663132,5.355728 -17.365811,12.668655 -0.271184,2.822263 -1.00092,5.299051 -1.621635,5.503975 C 53.007858,69.456725 49.8,69.107916 46.5,68.476671 Z M 212.48042,67.474078 C 200.45365,64.767717 195.41656,62.771821 191.75,59.259861 186.96055,54.672362 188.43472,50.333616 196.10318,46.447716 201.48719,43.71943 213.0352,40.607182 222,39.468391 c 6.89237,-0.875532 8.60856,-1.77264 9.39644,-4.911816 2.01192,-8.016093 10.85493,-17.427521 18.30878,-19.485627 8.76631,-2.420496 18.78315,4.017657 24.47624,15.731692 1.79023,3.683548 3.64389,6.97186 4.11924,7.30736 0.47536,0.3355 4.76466,1.152766 9.53179,1.816147 10.50865,1.462355 22.50872,5.340712 26.91751,8.699592 2.54821,1.941377 3.25,3.213045 3.25,5.889101 0,2.819372 -0.64704,3.852734 -3.71979,5.940719 -5.90295,4.011159 -27.28497,10.042855 -31.09694,8.772198 C 282.51853,69.006176 282,66.961869 282,64.562689 c 0,-7.096645 -5.54799,-11.395352 -17.43366,-13.507998 -14.80933,-2.632317 -31.08021,0.330706 -36.85471,6.711463 -1.48642,1.642468 -2.07898,3.959323 -2.65401,10.376857 -0.14283,1.593996 -3.25706,1.428362 -12.5772,-0.668933 z"
     id="path12"
     inkscape:connector-curvature="0" />
</svg>
